<svg xmlns="http://www.w3.org/2000/svg" viewBox="0 0 64 64">
  <circle cx="32" cy="32" r="32" fill="#e67e22"/>
  <g>
    <ellipse cx="32" cy="38" rx="16" ry="14" fill="#222"/>
    <ellipse cx="22" cy="24" rx="7" ry="10" fill="#222"/>
    <ellipse cx="42" cy="24" rx="7" ry="10" fill="#222"/>
    <ellipse cx="32" cy="32" rx="18" ry="16" fill="#222"/>
    <!-- Olhos -->
    <ellipse cx="26" cy="34" rx="3" ry="4" fill="#fff"/>
    <ellipse cx="38" cy="34" rx="3" ry="4" fill="#fff"/>
    <ellipse cx="26" cy="34" rx="1.2" ry="2" fill="#222"/>
    <ellipse cx="38" cy="34" rx="1.2" ry="2" fill="#222"/>
    <!-- Bandana ninja -->
    <rect x="20" y="22" width="24" height="6" rx="3" fill="#fff"/>
    <rect x="44" y="24" width="8" height="2" rx="1" fill="#fff"/>
    <!-- Nariz -->
    <ellipse cx="32" cy="40" rx="1.5" ry="1" fill="#fff"/>
    <!-- Boca -->
    <path d="M29 44 Q32 46 35 44" stroke="#fff" stroke-width="2" fill="none"/>
    <!-- Bigodes -->
    <path d="M16 38 Q22 40 28 38" stroke="#fff" stroke-width="1" fill="none"/>
    <path d="M36 38 Q42 40 48 38" stroke="#fff" stroke-width="1" fill="none"/>
  </g>
</svg>